<svg width="666" height="44" viewBox="0 0 666 44" fill="none" xmlns="http://www.w3.org/2000/svg">
<path fill-rule="evenodd" clip-rule="evenodd" d="M352.836 36.8263C356.663 32.5697 358.576 27.4746 358.576 21.5411C358.576 15.6506 356.684 10.5986 352.9 6.38495C349.16 2.12832 343.936 0 337.228 0C330.65 0 325.426 2.08532 321.556 6.25596C317.687 10.4266 315.752 15.5647 315.752 21.6701C315.752 27.5176 317.579 32.5697 321.234 36.8263C324.888 41.0829 330.134 43.2113 336.97 43.2113C343.764 43.2113 349.052 41.0829 352.836 36.8263ZM346.129 11.351C348.192 13.8448 349.224 17.3275 349.224 21.7991C349.224 25.8838 348.278 29.216 346.387 31.7957C344.495 34.3325 341.506 35.6009 337.422 35.6009C332.993 35.6009 329.833 34.2035 327.941 31.4088C326.049 28.614 325.103 25.3033 325.103 21.4766C325.103 17.521 326.071 14.2318 328.006 11.609C329.94 8.94322 332.993 7.61034 337.164 7.61034C341.076 7.61034 344.065 8.85723 346.129 11.351ZM92.3319 7.99731H88.7202L76.5308 26.1847V35.214H83.3672V42.5663H61.4391V35.214H67.8885V26.1202L55.3121 7.99731H51.5714V0.644945H68.9204V7.99731H65.4377L72.4676 18.5744H72.8546L79.82 7.99731H75.8213V0.644945H92.3319V7.99731ZM136.8 7.99731H132.995L118.096 42.5663H112.098L97.2647 7.99731H93.3306V0.644945H110.68V7.99731H106.874L115.452 29.216H115.839L124.223 7.99731H120.289V0.644945H136.8V7.99731ZM139.674 42.5663H157.346V35.214H152.831V7.99731H157.346V0.644945H139.674V7.99731H144.189V35.214H139.674V42.5663ZM207.107 7.99731H202.593V42.5663L197.756 42.6308L175.247 15.9946H174.989V35.214H180.794V42.5663H162.413V35.214H166.927V7.99731H161.703V0.644945H173.119L194.273 25.5398H194.531V7.99731H188.468V0.644945H207.107V7.99731ZM245.57 36.7618C249.311 32.8922 251.181 27.7756 251.181 21.4121C251.181 15.2207 249.354 10.2116 245.699 6.38495C242.087 2.55828 236.691 0.644945 229.511 0.644945H210.292V7.99731H214.806V35.214H210.292V42.5663H230.027C236.648 42.5663 241.829 40.6315 245.57 36.7618ZM229.317 7.99731C237.702 7.99731 241.894 12.5119 241.894 21.5411C241.894 26.3567 240.797 29.8394 238.605 31.9892C236.455 34.139 233.359 35.214 229.317 35.214H223.448V7.99731H229.317ZM313.17 7.99731H308.656V42.5663L303.819 42.6308L281.31 15.9946H281.052V35.214H286.857V42.5663H268.476V35.214H272.99V7.99731H267.766V0.644945H279.182L300.336 25.5398H300.594V7.99731H294.532V0.644945H313.17V7.99731ZM399.799 42.5663H389.093L380.773 26.5717H375.098V35.214H379.612V42.5663H361.941V35.214H366.455V7.99731H361.941V0.644945H380.902C386.105 0.644945 390.103 1.71985 392.898 3.86966C395.693 5.97648 397.09 9.13671 397.09 13.3503C397.09 16.1881 396.359 18.5744 394.897 20.5092C393.435 22.4011 391.501 23.8199 389.093 24.7659L394.768 35.214H399.799V42.5663ZM387.803 13.5438C387.803 11.437 387.18 9.99664 385.933 9.2227C384.686 8.40577 382.493 7.99731 379.354 7.99731H375.098V19.7353H379.225C382.536 19.7353 384.793 19.1978 385.997 18.1229C387.201 17.048 387.803 15.5217 387.803 13.5438ZM438.347 36.7618C442.088 32.8922 443.958 27.7756 443.958 21.4121C443.958 15.2207 442.131 10.2116 438.476 6.38495C434.864 2.55828 429.468 0.644945 422.288 0.644945H403.069V7.99731H407.583V35.214H403.069V42.5663H422.804C429.425 42.5663 434.606 40.6315 438.347 36.7618ZM422.094 7.99731C430.479 7.99731 434.671 12.5119 434.671 21.5411C434.671 26.3567 433.574 29.8394 431.382 31.9892C429.232 34.139 426.136 35.214 422.094 35.214H416.225V7.99731H422.094ZM491.521 42.5663H473.85V35.214H478.364V24.9593H460.628V35.214H465.143V42.5663H447.471V35.214H451.986V7.99731H447.471V0.644945H465.143V7.99731H460.628V17.6715H478.364V7.99731H473.85V0.644945H491.521V7.99731H487.007V35.214H491.521V42.5663ZM521.623 42.5663H538.327V35.214H534.329L519.237 0.644945H504.855V7.99731H510.659L498.663 35.214H494.858V42.5663H511.369V35.214H507.435L509.176 30.9573H523.429L524.977 35.214H521.623V42.5663ZM516.722 12.9634L521.107 24.7659H511.627L516.335 12.9634H516.722ZM580.978 25.6434H576.907V42.5663H570.199L569.361 38.1807C568.071 39.6856 566.415 40.911 564.395 41.8569C562.417 42.7598 560.073 43.2113 557.365 43.2113C551.474 43.2113 546.788 41.1689 543.305 37.0843C539.865 32.9996 538.146 27.9476 538.146 21.9281C538.146 15.9086 539.973 10.7491 543.628 6.44944C547.282 2.14982 552.657 0 559.751 0C563.148 0 566.222 0.494457 568.974 1.48337C571.768 2.47229 573.854 3.65468 575.23 5.03057L576.391 14.1243L569.425 14.7692L568.264 9.86765C567.146 9.13671 565.728 8.57776 564.008 8.19079C562.331 7.80382 560.783 7.61034 559.364 7.61034C555.924 7.61034 553.065 8.77124 550.786 11.093C548.551 13.4148 547.433 16.9835 547.433 21.7991C547.433 26.4427 548.486 29.9039 550.593 32.1827C552.743 34.4615 555.516 35.6009 558.913 35.6009C561.75 35.6009 564.008 34.8485 565.685 33.3436C567.361 31.8387 568.2 29.7104 568.2 26.9587V25.6434H560.009V19.4128H580.978V25.6434ZM583.01 42.5663H615.386L616.676 30.3124L609.324 29.6674L608.034 35.214H596.167V25.6434H610.582V19.4128H596.167V7.99731H607.647L608.937 13.5438L616.289 12.8989L615 0.644945H583.01V7.99731H587.525V35.214H583.01V42.5663ZM666 7.99731H661.485V42.5663L656.648 42.6308L634.14 15.9946H633.882V35.214H639.686V42.5663H621.305V35.214H625.82V7.99731H620.596V0.644945H632.011L653.166 25.5398H653.424V7.99731H647.361V0.644945H666V7.99731ZM52.1563 19.306C51.6301 14.6321 49.791 10.5401 46.639 7.02989C42.8983 2.77326 37.6743 0.644945 30.9669 0.644945C24.3884 0.644945 19.1644 2.73026 15.2947 6.9009C12.0782 10.3676 10.1985 14.5026 9.65559 19.306H0V25.6498H9.69926C10.2736 30.1054 12.0312 34.0459 14.9722 37.4713C18.6269 41.7279 23.8725 43.8562 30.7089 43.8562C37.5023 43.8562 42.7908 41.7279 46.5745 37.4713C49.6349 34.067 51.4715 30.1265 52.0843 25.6498H60.2653V19.306H52.1563ZM42.7733 19.306C42.3889 16.3093 41.4202 13.8726 39.8671 11.996C37.8033 9.50218 34.815 8.25528 30.9024 8.25528C26.7317 8.25528 23.679 9.58817 21.7442 12.2539C20.2884 14.2274 19.3802 16.578 19.0198 19.306H42.7733ZM42.7473 25.6498C42.3696 28.3082 41.4955 30.5719 40.1251 32.4407C38.2332 34.9775 35.245 36.2459 31.1603 36.2459C26.7317 36.2459 23.5715 34.8485 21.6797 32.0537C20.3956 30.1568 19.5473 28.0221 19.1348 25.6498H42.7473Z" fill="black"/>
</svg>
